<svg width="691" height="473" viewBox="0 0 691 473" fill="none" xmlns="http://www.w3.org/2000/svg">
<path d="M121.202 412.086C134.59 412.086 145.443 401.233 145.443 387.845C145.443 374.457 134.59 363.604 121.202 363.604C107.815 363.604 96.9619 374.457 96.9619 387.845C96.9619 401.233 107.815 412.086 121.202 412.086Z" fill="#014AB2"/>
<path d="M545.409 412.086C558.797 412.086 569.65 401.233 569.65 387.845C569.65 374.457 558.797 363.604 545.409 363.604C532.022 363.604 521.169 374.457 521.169 387.845C521.169 401.233 532.022 412.086 545.409 412.086Z" fill="#014AB2"/>
<path d="M679.943 166.045L574.498 49.691C567.226 41.2065 556.317 36.3584 545.409 36.3584H484.809V181.8H689.639C687.214 175.742 684.791 169.682 679.943 166.045Z" fill="#014AB2"/>
<path d="M606.01 266.643C598.739 266.643 593.891 261.795 593.891 254.523C593.891 247.252 598.739 242.404 606.01 242.404H690.851V206.044H481.173C470.265 206.044 460.568 196.347 460.568 185.44V36.3601H433.905C414.512 36.3601 399.968 50.9044 399.968 70.2968V254.523H327.246V218.163H363.606C370.878 218.163 375.726 213.315 375.726 206.044C375.726 198.771 370.878 193.924 363.606 193.924H327.246V169.684H363.606C370.878 169.684 375.726 164.835 375.726 157.564C375.726 150.293 370.878 145.444 363.606 145.444H327.246V121.204H363.606C370.878 121.204 375.726 116.356 375.726 109.084C375.726 101.813 370.878 96.9648 363.606 96.9648H327.246V72.7242H363.606C370.878 72.7242 375.726 67.8761 375.726 60.6047C375.726 53.3332 370.878 48.4851 363.606 48.4851H327.246V12.1196C327.246 4.84675 322.398 0 315.127 0C307.854 0 303.007 4.8481 303.007 12.1196V48.4797H72.7215V12.1196C72.7215 4.84675 67.8734 0 60.602 0C53.3305 0 48.4824 4.8481 48.4824 12.1196V48.4797H12.1196C4.84675 48.4797 0 53.3278 0 60.5993C0 67.8707 4.8481 72.7188 12.1196 72.7188H48.481V96.9594H12.1196C4.84675 96.9594 0 101.807 0 109.079C0 116.35 4.8481 121.199 12.1196 121.199H48.481V145.439H12.1196C4.84675 145.439 0 150.287 0 157.559C0 164.831 4.8481 169.678 12.1196 169.678H48.481V193.919H12.1196C4.84675 193.919 0 198.767 0 206.038C0 213.31 4.8481 218.158 12.1196 218.158H48.481V254.518H0V370.872C0 386.628 13.3326 399.961 29.0886 399.961H37.5731C43.6329 441.169 78.7813 472.683 121.203 472.683C163.624 472.683 198.772 441.171 204.832 399.961H461.78C467.84 441.169 502.988 472.683 545.41 472.683C587.831 472.683 622.979 441.171 629.039 399.961H661.764C677.52 399.961 690.853 386.628 690.853 370.872V266.639H606.01V266.643ZM121.203 448.446C87.2658 448.446 60.602 421.782 60.602 387.845C60.602 353.909 87.2658 327.245 121.203 327.245C155.139 327.245 181.803 353.909 181.803 387.845C181.803 421.782 155.138 448.446 121.203 448.446ZM303.004 254.523H72.7215V218.163H303.006L303.004 254.523ZM303.004 193.921H72.7215V169.681H303.006L303.004 193.921ZM303.004 145.442H72.7215V121.201H303.006L303.004 145.442ZM303.004 96.9607H72.7215V72.7202H303.006L303.004 96.9607ZM545.41 448.446C511.473 448.446 484.809 421.782 484.809 387.845C484.809 353.909 511.473 327.245 545.41 327.245C579.346 327.245 606.01 353.909 606.01 387.845C606.01 421.782 579.345 448.446 545.41 448.446Z" fill="#014AB2"/>
</svg>
