<svg width="26" height="26" viewBox="0 0 26 26" fill="none" xmlns="http://www.w3.org/2000/svg">
<g clip-path="url(#clip0_86_184)">
<path d="M21.8152 0H4.18017C3.70717 0 3.32617 0.382 3.32617 0.853V25.14C3.32617 25.612 3.70717 25.994 4.17917 25.994H17.2622C17.4722 25.994 17.6752 25.917 17.8322 25.776L22.3822 21.704C22.5632 21.542 22.6672 21.31 22.6672 21.068V0.853C22.6672 0.382 22.2852 0 21.8152 0ZM20.9622 20.59H16.9922V24.238L16.9392 24.285H5.03317V1.707H20.9612L20.9622 20.59Z" fill="#014AB2"/>
<path d="M14.5623 15.1731H10.2253C9.9783 15.1731 9.7793 15.3731 9.7793 15.6191V19.9561C9.7793 20.2031 9.9783 20.4021 10.2253 20.4021H14.5623C14.8083 20.4021 15.0083 20.2021 15.0083 19.9561V15.6201C15.0093 15.3741 14.8093 15.1731 14.5623 15.1731ZM14.1183 19.5111H10.6723V16.0651H14.1183V19.5111Z" fill="#014AB2"/>
<path d="M14.953 8.56907V8.53707C14.953 8.31907 14.776 8.14307 14.559 8.14307H10.229C10.012 8.14307 9.83496 8.31907 9.83496 8.53707V12.8661C9.83496 13.0851 10.012 13.2611 10.229 13.2611H14.56C14.777 13.2611 14.954 13.0851 14.954 12.8661V11.3231L14.258 12.0191C14.232 12.0451 14.196 12.0581 14.166 12.0811V12.4741H10.623V8.93007H14.166V9.35607L14.953 8.56907Z" fill="#014AB2"/>
<path d="M15.764 8.31295L13.568 10.508L12.728 9.66695C12.501 9.43995 12.135 9.43995 11.908 9.66695C11.681 9.89395 11.681 10.261 11.908 10.486L13.159 11.738C13.272 11.851 13.421 11.908 13.569 11.908C13.718 11.908 13.867 11.851 13.979 11.738L16.584 9.13195C16.812 8.90495 16.812 8.53895 16.584 8.31195C16.358 8.08595 15.991 8.08595 15.764 8.31295Z" fill="#014AB2"/>
<path d="M18.6902 4.15894H7.30518V5.34794H18.6902V4.15894Z" fill="#014AB2"/>
</g>
<defs>
<clipPath id="clip0_86_184">
<rect width="25.994" height="25.994" fill="white"/>
</clipPath>
</defs>
</svg>
