<svg width="800" height="800" viewBox="0 0 800 800" fill="none" xmlns="http://www.w3.org/2000/svg">
<g clip-path="url(#clip0_87_225)">
<path fill-rule="evenodd" clip-rule="evenodd" d="M583.213 730.946C594.8 726.313 604.97 721.65 613.72 717.253C631.093 746.82 663.23 766.666 700 766.666C755.23 766.666 800 721.893 800 666.666V466.667C800 411.437 755.23 366.667 700 366.667C653.27 366.667 614.026 398.72 603.056 442.04C593.53 445.38 583.92 448.496 574.176 451.28C545.976 459.336 512.01 466.663 483.333 466.663C440.846 466.663 364.733 451.176 320.678 441.213C287.277 433.66 252.969 452.346 241.949 485.406L228.771 524.943C191.824 511.166 147.091 488.807 115.873 472.247C80.9528 453.723 36.5661 468.83 21.4905 506.52L10.9767 532.803C0.702801 558.487 7.18759 588.847 29.6935 607.39C55.4354 628.603 106.38 667.926 168.811 702.1C230.637 735.94 307.187 766.663 383.333 766.663C471.223 766.663 537.913 749.066 583.213 730.946ZM666.666 666.666C666.666 685.076 681.59 700 700 700C718.41 700 733.333 685.076 733.333 666.666V466.667C733.333 448.257 718.41 433.333 700 433.333C681.59 433.333 666.666 448.257 666.666 466.667V666.666ZM483.333 533.33C432.05 533.33 348.446 515.843 305.972 506.24C305.972 506.24 294.827 537.593 293.196 542.483L421.55 575.92C436.946 579.93 445.733 596.13 440.703 611.223C436.45 623.98 423.64 631.786 410.38 629.55C369.676 622.683 285.078 607.663 241.949 594.55C183.864 576.887 123.694 551.863 84.6311 531.14C84.6311 531.14 74.3151 553.963 73.1684 556.83C97.4574 576.77 144.264 612.663 200.82 643.62C258.829 675.37 323.647 699.997 383.333 699.997C500.766 699.997 572.56 665.183 600 648.833V513.187C562.27 524.463 522.883 533.33 483.333 533.33Z" fill="#014AB2"/>
<path d="M400 33.3335C381.59 33.3335 366.666 48.2575 366.666 66.6668V252.855L323.57 209.759C310.553 196.747 289.447 196.747 276.43 209.759C263.411 222.78 263.411 243.882 276.43 256.903L376.4 356.877C389.41 369.883 410.496 369.893 423.516 356.9L523.5 257.123C536.516 244.11 536.516 223 523.5 209.987C510.483 196.966 489.376 196.966 476.36 209.987L433.333 253.011V66.6668C433.333 48.2575 418.41 33.3335 400 33.3335Z" fill="#014AB2"/>
</g>
<defs>
<clipPath id="clip0_87_225">
<rect width="800" height="800" fill="white"/>
</clipPath>
</defs>
</svg>
