<svg width="716" height="500" viewBox="0 0 716 500" fill="none" xmlns="http://www.w3.org/2000/svg">
<path d="M661.75 256.625L649.5 250.5H568.25C557.875 250.5 549.5 242.125 549.5 231.75C549.5 221.375 557.875 213 568.25 213H604.5L589.5 194.25C580 182.375 565.625 175.5 550.5 175.5H437L311.75 95.8749C303.75 90.7499 294.5 88 285 88H254.625C243.5 88 238 101.5 245.875 109.375L312 175.5H99.4999L53.1249 94.25C50.8749 90.375 46.7499 88 42.2499 88H13.4999C5.99993 88 0.249928 94.5 0.999928 101.875L10.1249 183.125C11.3749 194.375 16.4999 205 24.4999 213L55.7499 244.25L20.8749 279.125C12.9999 287 18.4999 300.5 29.6249 300.5H48.1249C57.2499 300.5 66.1249 298 73.8749 293.375C100.289 277.43 80.1077 289.561 176.25 231.875C182.25 228.375 189.875 230.25 193.375 236.25C197.181 242.341 194.897 249.837 189.125 253.375L120.125 294.75C130.625 298.5 141.875 300.5 153.375 300.5H312L245.875 366.625C238 374.5 243.5 388 254.625 388H283.5C293.875 388 304 384.75 312.5 378.625C444.106 284.728 411.145 308.248 464.375 270.25C469.875 266.25 477.75 267.5 481.75 273.125C485.927 278.908 484.373 286.755 478.875 290.625L465 300.5H651.375C664.125 300.5 674.5 290.125 674.5 277.375V277.25C674.5 268.5 669.5 260.5 661.75 256.625ZM249.5 225.5C249.5 232.409 243.909 238 237 238C230.091 238 224.5 232.409 224.5 225.5V213C224.5 206.091 230.091 200.5 237 200.5C243.909 200.5 249.5 206.091 249.5 213V225.5ZM299.5 225.5C299.5 232.409 293.909 238 287 238C280.091 238 274.5 232.409 274.5 225.5V213C274.5 206.091 280.091 200.5 287 200.5C293.909 200.5 299.5 206.091 299.5 213V225.5ZM349.5 225.5C349.5 232.409 343.909 238 337 238C330.091 238 324.5 232.409 324.5 225.5V213C324.5 206.091 330.091 200.5 337 200.5C343.909 200.5 349.5 206.091 349.5 213V225.5ZM399.5 225.5C399.5 232.409 393.909 238 387 238C380.091 238 374.5 232.409 374.5 225.5V213C374.5 206.091 380.091 200.5 387 200.5C393.909 200.5 399.5 206.091 399.5 213V225.5ZM449.5 225.5C449.5 232.409 443.909 238 437 238C430.091 238 424.5 232.409 424.5 225.5V213C424.5 206.091 430.091 200.5 437 200.5C443.909 200.5 449.5 206.091 449.5 213V225.5ZM499.5 225.5C499.5 232.409 493.909 238 487 238C480.091 238 474.5 232.409 474.5 225.5V213C474.5 206.091 480.091 200.5 487 200.5C493.909 200.5 499.5 206.091 499.5 213V225.5ZM177.125 53.1031L145.95 85.0734C141.044 90.1046 132.958 90.1046 128.051 85.0734L96.8765 53.1047C85.9124 41.8609 83.7718 23.8109 93.5874 11.5515C104.751 -2.38911 124.872 -3.14067 137 9.29839C149.13 -3.13911 169.248 -2.38911 180.412 11.5515C190.23 23.8078 188.089 41.8593 177.125 53.1031ZM577.125 434.353L545.95 466.323C541.044 471.355 532.958 471.355 528.052 466.323L496.877 434.355C485.912 423.111 483.772 405.061 493.589 392.802C504.753 378.861 524.873 378.109 537.002 390.548C549.131 378.111 569.25 378.861 580.414 392.802C590.23 405.058 588.089 423.109 577.125 434.353Z" fill="#014AB2"/>
</svg>
